<svg width="67" height="67" viewBox="0 0 67 67" fill="none" xmlns="http://www.w3.org/2000/svg">
<g clip-path="url(#clip0_2_89)">
<path d="M27.3922 61.4173C27.8136 62.504 28.1922 63.5236 28.6117 64.5227C28.6639 64.6514 28.9324 64.7557 29.1021 64.7557C32.149 64.7707 35.1959 64.7669 38.2894 64.7669C38.3789 64.5805 38.4572 64.3941 38.5579 64.2245C38.8507 63.7082 39.3038 63.5236 39.8632 63.7063C40.4226 63.889 40.7639 64.3345 40.6091 64.944C40.4899 65.4879 40.2759 66.0065 39.977 66.4762C39.8557 66.6232 39.7052 66.7435 39.5351 66.8295C39.365 66.9155 39.179 66.9653 38.9887 66.9758C35.3357 67.0112 31.6828 66.9963 28.0299 67C27.3792 67 27.0099 66.6626 26.7899 66.068C26.2771 64.698 25.7382 63.3372 25.2217 61.9672C25.0912 61.6205 24.9681 61.3912 24.5057 61.3763C23.8381 61.3577 23.4614 60.9103 23.4559 60.2243C23.4384 58.4113 23.4384 56.597 23.4559 54.7814C23.4559 53.9445 23.8847 53.5922 24.8227 53.5903C29.3128 53.5903 33.803 53.5903 38.2931 53.5903H41.3195C41.3195 52.5689 41.3456 51.5791 41.3195 50.5911C41.2953 49.8791 41.5787 49.4355 42.1978 49.0776C47.2604 46.1417 50.2849 41.7706 51.1968 35.9959C52.6885 26.5864 45.9887 17.4341 36.5385 15.8907C26.8645 14.3082 17.9662 20.4165 15.9785 30.0013C14.4457 37.3977 17.983 45.1762 24.6064 48.9713C24.7667 49.0645 24.9327 49.1577 25.0912 49.2472C25.7159 49.6312 25.9023 50.1978 25.5965 50.7757C25.2721 51.3889 24.6493 51.5958 23.9929 51.1653C22.654 50.2892 21.2294 49.4876 20.077 48.3916C14.0336 42.6635 11.9079 35.6548 14.3208 27.6899C16.7038 19.8257 22.2457 15.0612 30.3738 13.6744C41.7223 11.7358 52.4853 20.0512 53.4717 31.4776C54.1784 39.6419 50.9171 45.987 44.1147 50.5184C43.6933 50.7999 43.5385 51.0683 43.5422 51.5679C43.5683 54.3639 43.5572 57.1506 43.5534 59.941C43.5534 61.0277 43.1805 61.4061 42.0822 61.4061H27.3997L27.3922 61.4173ZM25.6804 59.1302H41.2841V55.8681H25.7065C25.7065 56.0117 25.6823 56.1217 25.6823 56.241C25.6804 57.1823 25.6804 58.1329 25.6804 59.1302Z" fill="#FC7500"/>
<path d="M24.4851 26.7821C24.0413 27.5464 23.6143 28.2845 23.1705 29.0544C23.8772 29.6788 24.5429 30.2902 25.2347 30.868C25.7102 31.2669 25.8519 31.7311 25.8053 32.3462C25.7512 33.153 25.7512 33.9626 25.8053 34.7694C25.8383 35.012 25.8091 35.2591 25.7204 35.4873C25.6317 35.7156 25.4864 35.9175 25.2981 36.0742C24.5933 36.68 23.9052 37.3026 23.1686 37.9531L24.4739 40.231C25.3522 39.9383 26.2118 39.6718 27.0546 39.3605C27.3122 39.2561 27.593 39.2224 27.868 39.2627C28.143 39.303 28.4023 39.4159 28.6191 39.5897C29.2401 40.0347 29.9034 40.4174 30.5994 40.7324C30.8825 40.8358 31.1315 41.0153 31.319 41.2511C31.5066 41.4869 31.6253 41.7699 31.6623 42.0689C31.8059 42.9133 31.9886 43.7465 32.1695 44.6785C32.9657 44.6785 33.7489 44.6953 34.5302 44.6599C34.6551 44.6599 34.8397 44.4194 34.877 44.2647C35.0635 43.4967 35.2089 42.7194 35.3525 41.944C35.4588 41.3643 35.7832 41.0232 36.3184 40.7734C37.0157 40.4587 37.6803 40.0759 38.3024 39.6308C38.5319 39.4385 38.8099 39.3131 39.1059 39.2684C39.402 39.2237 39.7046 39.2613 39.9807 39.3773C40.7843 39.6774 41.6048 39.9364 42.4831 40.2291C42.9157 39.4835 43.3446 38.7565 43.8107 37.955C43.1432 37.3678 42.5054 36.7676 41.8248 36.2178C41.2785 35.776 41.1106 35.2615 41.189 34.5644C41.2635 33.8505 41.2635 33.1309 41.189 32.417C41.1256 31.7795 41.2561 31.2986 41.7596 30.8755C42.4383 30.3163 43.0854 29.7105 43.8107 29.0767L42.5054 26.7989C41.6402 27.0878 40.7806 27.3581 39.9415 27.6619C39.3336 27.8875 38.8451 27.7756 38.3192 27.4028C37.6944 26.963 37.0295 26.5829 36.3333 26.2677C36.0725 26.1699 35.8426 26.0044 35.6672 25.7881C35.4919 25.5718 35.3774 25.3127 35.3357 25.0374C35.2033 24.3067 35.0131 23.5853 34.9124 22.8509C34.8528 22.4166 34.6588 22.3327 34.271 22.3421C33.3181 22.3626 32.3634 22.357 31.4106 22.3421C30.5826 22.3309 30.1202 21.9021 30.1388 21.1938C30.1575 20.5153 30.6069 20.1201 31.405 20.1146C32.7724 20.1059 34.1448 20.1059 35.5222 20.1146C36.3482 20.1146 36.6727 20.3979 36.8536 21.233C37.0344 22.068 37.1855 22.9684 37.413 23.8202C37.4764 24.0681 37.7337 24.2676 37.9053 24.4838C37.9314 24.5174 37.9929 24.5211 38.0265 24.5528C39.1061 25.5668 40.2324 25.2704 41.4612 24.8044C43.5124 24.0234 43.5329 24.0793 44.6312 26.0086C45.1179 26.8548 45.6064 27.6992 46.0838 28.5511C46.5108 29.3153 46.4325 29.731 45.7724 30.3219C45.5327 30.5756 45.2678 30.8041 44.9817 31.0041C43.6765 31.7628 43.3035 32.9203 43.5142 34.3314C43.5515 34.57 43.6615 34.7914 43.8294 34.9651C44.4745 35.5691 45.1552 36.1339 45.8134 36.7229C46.4362 37.2821 46.5108 37.7183 46.0987 38.4452C45.4348 39.6171 44.7623 40.7846 44.0811 41.9477C43.6541 42.6765 43.2476 42.8313 42.4532 42.574C41.5917 42.2963 40.7415 41.9794 39.8725 41.7278C39.6487 41.6625 39.3653 41.7613 39.1266 41.821C38.998 41.8527 38.8991 41.9943 38.7705 42.0335C37.5659 42.4063 37.2135 43.3252 37.1184 44.4567C37.0538 44.94 36.9616 45.4192 36.8424 45.892C36.7063 46.5518 36.3016 46.9023 35.6229 46.906C34.2032 46.906 32.7842 46.906 31.3658 46.906C30.6908 46.906 30.2787 46.5667 30.1407 45.9013C29.9542 45.014 29.8069 44.1193 29.5813 43.2432C29.4795 42.9589 29.3007 42.7085 29.0648 42.52C27.9609 41.5376 26.8122 41.683 25.507 42.2124C23.5006 43.0251 23.467 42.9431 22.3724 41.0511C21.8727 40.1881 21.3692 39.3251 20.8807 38.4546C20.4686 37.7239 20.5413 37.2858 21.1604 36.7322C21.7794 36.1786 22.4769 35.6138 23.0903 35.0192C23.2831 34.7846 23.4076 34.5015 23.4502 34.2009C23.756 32.7283 23.0456 31.7777 21.9174 30.8979C20.2635 29.593 20.3213 29.5241 21.358 27.7104C21.869 26.825 22.3743 25.9359 22.8927 25.0561C23.3197 24.3328 23.7206 24.1837 24.5261 24.4465C25.3652 24.7187 26.1913 25.0374 27.0397 25.2723C27.338 25.3242 27.645 25.2819 27.918 25.1511C28.3208 24.9796 28.6639 24.6832 29.0685 24.5043C29.1948 24.4425 29.3321 24.4065 29.4724 24.3983C29.6128 24.3901 29.7533 24.4099 29.8859 24.4566C30.0186 24.5032 30.1405 24.5758 30.2448 24.6701C30.349 24.7644 30.4334 24.8785 30.4931 25.0057C30.6294 25.2529 30.6635 25.5436 30.5882 25.8156C30.513 26.0876 30.3343 26.3194 30.0904 26.4615C29.5309 26.8343 28.9958 27.2649 28.3916 27.5464C28.0002 27.7128 27.5662 27.7513 27.1516 27.6563C26.2677 27.4271 25.4025 27.0878 24.4851 26.7821Z" fill="#FC7500"/>
<path d="M33.5196 37.9662C32.6323 37.9725 31.7631 37.7149 31.0226 37.2263C30.282 36.7376 29.7035 36.0399 29.3605 35.2219C29.0175 34.4038 28.9256 33.5022 29.0963 32.6318C29.2671 31.7614 29.6928 30.9613 30.3195 30.3333C30.9461 29.7053 31.7454 29.2777 32.6157 29.1048C33.486 28.932 34.3881 29.0216 35.2074 29.3624C36.0266 29.7032 36.726 30.2798 37.2167 31.0188C37.7074 31.7579 37.9672 32.6261 37.9631 33.5131C37.9549 34.6896 37.4844 35.8158 36.6532 36.6488C35.822 37.4818 34.6966 37.955 33.5196 37.9662ZM31.2615 33.4665C31.2533 33.9105 31.3776 34.3469 31.6185 34.7201C31.8593 35.0933 32.2059 35.3864 32.614 35.562C33.0221 35.7376 33.4732 35.7878 33.9099 35.7062C34.3466 35.6246 34.7492 35.4148 35.0662 35.1037C35.3833 34.7926 35.6005 34.3941 35.6902 33.9592C35.7799 33.5242 35.7381 33.0723 35.57 32.6612C35.4019 32.2501 35.1152 31.8983 34.7464 31.6507C34.3776 31.403 33.9434 31.2707 33.4991 31.2707C32.9114 31.2662 32.3458 31.4948 31.9264 31.9064C31.507 32.318 31.2679 32.879 31.2615 33.4665Z" fill="#FC7500"/>
<path d="M5.25661 50.9657C4.96199 50.6805 4.56108 50.4308 4.37275 50.0692C4.26046 49.8597 4.23406 49.6148 4.29914 49.3863C4.36421 49.1577 4.51566 48.9634 4.72144 48.8445C5.0459 48.6264 5.39645 48.44 5.73769 48.2424C7.32081 47.3253 8.90765 46.4045 10.4908 45.4949C11.2627 45.0531 11.9023 45.1649 12.2454 45.7726C12.5885 46.3803 12.3722 46.9898 11.6077 47.4316C9.8027 48.4767 7.99396 49.5155 6.18148 50.5482C5.94467 50.6824 5.68549 50.7737 5.25661 50.9657Z" fill="#FC7500"/>
<path d="M55.851 45.2115C56.0725 45.2921 56.2886 45.3867 56.4981 45.4949C58.3329 46.5462 60.164 47.6024 61.9914 48.6637C62.7261 49.0906 62.9238 49.6535 62.59 50.2667C62.2562 50.88 61.6409 51.0124 60.9118 50.606C59.0173 49.5211 57.1265 48.4295 55.2394 47.3309C54.7471 47.0476 54.4935 46.6301 54.652 46.0504C54.7993 45.5228 55.1685 45.2451 55.851 45.2115Z" fill="#FC7500"/>
<path d="M50.8202 5.56776C50.7382 5.79132 50.6429 6.00978 50.5349 6.22202C49.4832 8.05247 48.4265 9.88046 47.3649 11.7059C46.9304 12.4515 46.3804 12.6379 45.7632 12.3006C45.1459 11.9632 45.0061 11.3499 45.4201 10.623C46.5066 8.7316 47.5986 6.84336 48.6963 4.95822C48.9835 4.4624 49.4198 4.21262 49.9829 4.36734C50.5051 4.51459 50.7829 4.88739 50.8202 5.56776Z" fill="#FC7500"/>
<path d="M12.3872 20.409C12.3872 21.4417 11.5406 22.0531 10.832 21.6635C8.79949 20.5451 6.79309 19.3782 4.79601 18.1983C4.67603 18.1247 4.57215 18.0276 4.49052 17.913C4.40889 17.7983 4.3512 17.6684 4.32092 17.5309C4.29063 17.3935 4.28837 17.2513 4.31425 17.113C4.34013 16.9747 4.39363 16.843 4.47156 16.7258C4.54423 16.599 4.64191 16.4883 4.75864 16.4004C4.87536 16.3126 5.00871 16.2493 5.15062 16.2144C5.29254 16.1795 5.44006 16.1739 5.58425 16.1977C5.72843 16.2215 5.86626 16.2743 5.98941 16.3529C7.30961 17.0818 8.59998 17.8442 9.91645 18.6009C10.5206 18.9477 11.1471 19.2608 11.714 19.6616C12.0273 19.8722 12.2417 20.2376 12.3872 20.409Z" fill="#FC7500"/>
<path d="M61.7715 16.0715C62.0418 16.3549 62.4353 16.6177 62.6087 16.983C62.8399 17.4714 62.6199 17.9523 62.15 18.2375C61.3165 18.7445 60.4718 19.2198 59.6215 19.7064C58.5567 20.3196 57.4976 20.9422 56.4254 21.5443C55.7168 21.9413 55.1537 21.8183 54.7938 21.2292C54.4339 20.6402 54.6073 20.0344 55.3308 19.6094C57.1731 18.5345 59.0217 17.4683 60.8764 16.4108C61.1671 16.2784 61.4661 16.165 61.7715 16.0715Z" fill="#FC7500"/>
<path d="M34.6178 4.47358C34.6178 5.54352 34.6178 6.61159 34.6178 7.68153C34.6178 8.47187 34.1983 8.92296 33.5195 8.93042C32.8408 8.93788 32.4007 8.48306 32.4007 7.70763C32.3895 5.54538 32.3895 3.38313 32.4007 1.22088C32.4007 0.458495 32.865 -0.0112328 33.5344 -4.87718e-05C34.2039 0.0111353 34.6178 0.48459 34.6253 1.26561C34.6178 2.33369 34.6178 3.39618 34.6178 4.47358Z" fill="#FC7500"/>
<path d="M4.39144 34.6184C3.36773 34.6184 2.34029 34.6184 1.32031 34.6184C0.470015 34.6184 0.0150167 34.2177 9.92353e-05 33.5168C-0.0148182 32.816 0.456955 32.3984 1.29047 32.3984C3.40378 32.391 5.52081 32.391 7.64158 32.3984C8.47323 32.3984 8.94686 32.8215 8.92635 33.528C8.90584 34.2345 8.46764 34.6147 7.67142 34.6259C6.57871 34.6278 5.48415 34.6166 4.39144 34.6184Z" fill="#FC7500"/>
<path d="M62.603 32.3853C63.6491 32.3853 64.6971 32.3853 65.7432 32.3853C66.5357 32.3853 66.9869 32.7954 66.9981 33.4757C67.0093 34.1561 66.5599 34.6053 65.7823 34.6109C63.6193 34.6233 61.4556 34.6233 59.2914 34.6109C58.5119 34.6109 58.0644 34.1654 58.0719 33.4813C58.0793 32.7972 58.5324 32.3927 59.3231 32.3853C60.4158 32.3778 61.5103 32.3853 62.603 32.3853Z" fill="#FC7500"/>
<path d="M17.5113 4.32825C17.6735 4.45686 18.0837 4.63953 18.2739 4.95455C19.4095 6.83907 20.5116 8.74781 21.5912 10.6622C21.953 11.2996 21.7777 11.8887 21.2089 12.2223C20.6402 12.556 20.0454 12.4087 19.6706 11.7712C18.5518 9.87368 17.4497 7.97052 16.3738 6.05246C15.917 5.23975 16.4111 4.35062 17.5113 4.32825Z" fill="#FC7500"/>
</g>
<defs>
<clipPath id="clip0_2_89">
<rect width="67" height="67" fill="white"/>
</clipPath>
</defs>
</svg>
