<svg width="72" height="72" viewBox="0 0 72 72" fill="none" xmlns="http://www.w3.org/2000/svg">
<g clip-path="url(#clip0_2_102)">
<path d="M72 36.692C71.7634 37.1671 71.5794 37.6817 71.2771 38.1118C70.513 39.1954 69.3995 39.5954 68.1059 39.5973C67.0281 39.5973 65.9485 39.6123 64.8727 39.5973C64.1442 39.5841 63.6898 39.8921 63.4288 40.5757C63.0533 41.5353 62.6778 42.4912 62.244 43.4246C61.9211 44.1232 62.045 44.6734 62.5839 45.1955C63.3575 45.9467 64.116 46.7111 64.8689 47.481C66.5381 49.1825 66.54 51.2501 64.8689 52.9497C63.3042 54.5322 61.7296 56.1054 60.1449 57.6691C58.4776 59.3123 56.4066 59.3161 54.7262 57.6804C53.517 56.5029 52.3304 55.3047 51.1418 54.1122C50.4922 53.4568 50.434 52.7056 50.9653 52.2004C51.4967 51.6952 52.1783 51.7685 52.8242 52.407C53.9751 53.5338 55.1129 54.6906 56.2583 55.8305C57.1483 56.7132 57.7078 56.7188 58.5809 55.8493C60.0904 54.3469 61.5982 52.8395 63.104 51.3271C63.9264 50.4989 63.9282 49.9356 63.104 49.1092C62.3529 48.3411 61.5775 47.5881 60.8227 46.8181C59.5685 45.5317 59.3206 44.1701 60.0379 42.5081C60.4409 41.5616 60.8333 40.6107 61.2151 39.6555C61.8497 38.0742 63.0026 37.2347 64.7131 37.2141C65.8396 37.1953 66.9662 37.2141 68.0927 37.2028C69.2193 37.1916 69.608 36.7559 69.6117 35.646C69.6117 33.4901 69.6117 31.3341 69.6117 29.1782C69.6117 28.042 69.1761 27.6101 68.0364 27.5988C66.9361 27.5894 65.834 27.5988 64.7337 27.5988C63.0533 27.5819 61.8986 26.7838 61.2602 25.2326C60.8415 24.2166 60.4284 23.1987 59.9966 22.1865C59.3356 20.6334 59.6117 19.2587 60.772 18.0549C61.5531 17.2474 62.3642 16.4661 63.1509 15.6624C63.902 14.8886 63.917 14.3083 63.1622 13.5459C61.6113 11.9796 60.0541 10.4222 58.4907 8.87345C57.7209 8.11098 57.1445 8.12225 56.3728 8.87345C55.6011 9.62464 54.8182 10.4341 54.0315 11.204C52.7678 12.4416 51.4028 12.6933 49.7862 12.0116C48.8174 11.6022 47.8429 11.204 46.8684 10.8078C45.2424 10.1467 44.4501 9.00303 44.4276 7.2396C44.4144 6.13911 44.4276 5.03861 44.4276 3.93623C44.4126 2.88081 43.9694 2.43385 42.9255 2.43385C40.7225 2.42258 38.52 2.42258 36.3183 2.43385C35.2706 2.43385 34.8387 2.87329 34.8162 3.93623C34.7936 4.99917 34.8162 6.09028 34.8162 7.16824C34.7899 9.06125 33.9957 10.173 32.2439 10.8585C31.2863 11.2341 30.34 11.6397 29.3937 12.0435C27.871 12.6933 26.506 12.4379 25.3156 11.3092C24.4819 10.5204 23.6915 9.68849 22.8747 8.88471C22.1011 8.13352 21.521 8.13352 20.7587 8.88471C19.194 10.4347 17.6362 11.9915 16.0853 13.5553C15.3343 14.3064 15.3343 14.913 16.0853 15.6755C17.2025 16.8023 18.3384 17.9291 19.465 19.0559C19.6528 19.2314 19.8198 19.428 19.9626 19.6418C20.1096 19.8594 20.1717 20.1233 20.137 20.3836C20.1024 20.6439 19.9735 20.8825 19.7748 21.054C19.6018 21.2512 19.3631 21.3789 19.1031 21.4135C18.8431 21.448 18.5794 21.387 18.361 21.2418C18.182 21.1319 18.0179 20.9994 17.8728 20.8475C16.6937 19.6737 15.5089 18.5075 14.3467 17.3169C12.7113 15.6417 12.7132 13.5609 14.3467 11.897C15.9063 10.3095 17.4798 8.7351 19.0669 7.17387C20.768 5.49496 22.8409 5.49683 24.5382 7.16261C25.2893 7.90065 26.0291 8.6556 26.7782 9.39552C27.4748 10.0847 27.7696 10.1298 28.6558 9.75234C29.542 9.37487 30.4564 8.96359 31.3783 8.62555C32.1293 8.35324 32.4448 7.87436 32.4241 7.08748C32.396 6.03393 32.4054 4.97851 32.4241 3.92496C32.4542 1.94557 33.2859 0.81126 35.1617 0.148332C35.2219 0.11751 35.2769 0.077616 35.325 0.0300293H43.9018C46.1381 0.743663 46.983 2.34182 46.8459 4.59915C46.7933 5.46303 46.8572 6.33066 46.8328 7.19641C46.8121 7.90629 47.1407 8.3232 47.7716 8.58611C48.7479 8.97486 49.7243 9.36735 50.6818 9.79929C51.3521 10.1016 51.8872 9.98709 52.3904 9.47064C53.1565 8.68064 53.9344 7.90316 54.7243 7.13819C56.401 5.50435 58.4626 5.49683 60.1393 7.13819C61.7365 8.6869 63.3237 10.2644 64.9008 11.8707C66.5456 13.544 66.5362 15.6117 64.9008 17.2868C64.1329 18.0737 63.3574 18.8549 62.5689 19.6211C62.0488 20.1244 61.9361 20.6559 62.2403 21.3282C62.6721 22.286 63.0589 23.2644 63.4457 24.241C63.6992 24.8851 64.1273 25.2006 64.8351 25.18C65.9617 25.1574 67.0882 25.1668 68.2148 25.18C69.5084 25.1912 70.6031 25.6495 71.3466 26.7406C71.6282 27.1575 71.7935 27.6533 72.0113 28.1134L72 36.692Z" fill="#FC7500"/>
<path d="M4.10811 60.7809C4.44045 59.9752 4.70143 59.2635 5.03188 58.5836C5.16895 58.3001 5.44308 58.0766 5.67214 57.8437C6.82499 56.6756 6.9076 55.7779 5.8599 54.4896C5.64398 54.2211 5.20087 54.0727 4.83662 54.0051C4.38224 53.9206 3.89782 54.0051 3.43406 53.9694C1.56585 53.8455 0.116354 52.4408 0.0431282 50.5703C-0.0225875 48.8632 -0.0188323 47.1505 0.0431282 45.4415C0.108844 43.5279 1.55647 42.1269 3.46785 42.0142C3.60867 42.0142 3.74949 42.0011 3.89031 41.9992C5.78105 41.9729 5.8599 41.9034 6.50955 40.1362C6.61888 39.889 6.64852 39.6138 6.59435 39.349C6.54017 39.0841 6.40488 38.8427 6.20726 38.6582C5.85052 38.2827 5.47312 37.9315 5.14454 37.5315C4.04803 36.2075 3.98607 34.2957 5.13328 33.013C6.35138 31.652 7.63992 30.3556 8.9936 29.1294C10.3361 27.9162 12.24 27.9819 13.6237 29.1425C13.8021 29.2927 13.9711 29.458 14.1363 29.6233C15.2948 30.7726 16.2148 30.859 17.4935 29.8411C17.7657 29.627 17.9216 29.1876 17.9948 28.8251C18.0811 28.3969 17.9948 27.9368 18.0248 27.4936C18.1206 25.5424 19.5269 24.0851 21.4796 24.0231C23.1882 23.968 24.8981 23.968 26.6092 24.0231C28.4868 24.0889 29.8705 25.5255 29.9888 27.4035C30.0001 27.5669 30.0057 27.7321 30.0076 27.8955C30.0264 29.6928 30.0977 29.7829 31.7894 30.4383C32.4053 30.6768 32.916 30.5998 33.3891 30.1247C33.7602 29.7349 34.1546 29.368 34.5702 29.0261C35.8845 27.9913 37.7358 27.9556 38.975 29.0749C40.3648 30.3311 41.6896 31.6574 42.9442 33.0487C44.0501 34.2769 43.9919 36.1568 42.9442 37.4545C42.5931 37.8902 42.18 38.277 41.7951 38.6845C41.6144 38.8549 41.4901 39.0764 41.4388 39.3194C41.3874 39.5624 41.4115 39.8153 41.5079 40.0442C41.6337 40.371 41.7876 40.6883 41.9059 41.0189C42.1538 41.71 42.6569 41.9729 43.3685 41.9879C44.0426 42.0011 44.7411 41.9879 45.3851 42.1475C46.1113 42.3179 46.7598 42.726 47.2276 43.3072C47.6953 43.8883 47.9555 44.6091 47.9668 45.3551C48.0193 47.0866 48.0269 48.8238 47.9668 50.5553C47.9067 52.4032 46.5041 53.7929 44.6603 53.9488C44.4726 53.9657 44.2848 53.9657 44.0971 53.9676C42.2758 53.9788 41.859 54.2737 41.4684 56.069C41.3896 56.4334 41.5942 56.9235 41.8102 57.2672C42.0655 57.6747 42.4936 57.9695 42.8109 58.3433C43.9919 59.7349 44.0745 61.6147 42.8635 62.9669C41.6276 64.3444 40.3157 65.6516 38.9337 66.8825C37.6776 68.0092 35.785 67.9379 34.4763 66.8637C34.0613 66.5219 33.6896 66.1275 33.299 65.7575C32.9085 65.3876 32.4203 65.243 31.8814 65.4796C31.6261 65.5923 31.367 65.705 31.1022 65.7932C30.3024 66.0599 29.9588 66.6026 29.9851 67.4459C30.0234 68.0294 29.9887 68.6155 29.8818 69.1905C29.72 69.9552 29.3046 70.6428 28.7031 71.1419C28.1016 71.6409 27.3492 71.9221 26.5679 71.9399C24.8593 71.9943 23.145 72.0018 21.4383 71.9399C19.5607 71.8704 18.16 70.4375 18.0229 68.5595C18.0098 68.3961 18.0098 68.2309 18.0079 68.0675C17.9967 66.2233 17.961 66.1895 16.2655 65.5115C15.6215 65.2524 15.0901 65.3237 14.6038 65.8308C14.268 66.1902 13.9106 66.5289 13.5336 66.8449C12.1949 67.936 10.2929 67.9867 9.01801 66.8449C7.66113 65.6324 6.37476 64.3433 5.1652 62.9838C4.65825 62.3997 4.46298 61.549 4.10811 60.7809ZM41.4497 35.3154C41.23 34.9192 41.123 34.5887 40.9089 34.3652C39.833 33.2534 38.744 32.1567 37.6306 31.0843C37.0467 30.5209 36.4384 30.5529 35.8188 31.1069C35.4526 31.4336 35.1222 31.8092 34.7467 32.1266C33.6896 32.998 32.4935 33.2346 31.1961 32.7764C30.7774 32.628 30.3681 32.4571 29.9588 32.2825C28.4192 31.6233 27.6531 30.4383 27.6005 28.7782C27.5912 28.4495 27.6005 28.1209 27.6005 27.7941C27.5743 26.8439 27.1668 26.4213 26.2224 26.4082C25.1221 26.3913 24.02 26.4082 22.9197 26.4082C20.4788 26.4082 20.4638 26.4232 20.4075 28.8646C20.3718 30.4139 19.6565 31.5369 18.2426 32.1961C17.777 32.414 17.3038 32.6093 16.8157 32.7802C15.4826 33.2497 14.2771 32.9811 13.2144 32.0778C12.8389 31.7585 12.5197 31.3792 12.148 31.0562C11.5847 30.5604 10.9876 30.5266 10.445 31.0449C9.29402 32.1454 8.16934 33.2759 7.06532 34.4253C6.56964 34.9398 6.60531 35.5859 7.08222 36.1305C7.36196 36.4466 7.65842 36.7475 7.97032 37.0319C10.3098 39.1766 8.20126 43.802 5.91999 44.2396C5.25018 44.3428 4.57364 44.3962 3.89594 44.3992C2.87078 44.4368 2.42767 44.8406 2.41828 45.849C2.40576 47.2763 2.40576 48.7055 2.41828 50.1365C2.42767 51.1412 2.88017 51.5675 3.89782 51.5975C4.4818 51.5892 5.0657 51.6187 5.64586 51.6858C7.69431 52.0107 8.7758 54.2192 8.99924 56.2831C9.15508 57.7029 8.28012 58.6832 7.32443 59.6015C6.49266 60.3997 6.5058 61.0044 7.3094 61.8175C8.2144 62.734 9.13067 63.6411 10.0432 64.55C11.0552 65.5585 11.5546 65.5735 12.5591 64.5218C13.4717 63.5659 14.4931 62.8429 15.8731 63.0044C17.1149 63.1394 18.2883 63.6415 19.2434 64.4467C19.6002 64.754 19.8878 65.1335 20.0872 65.5602C20.2866 65.9869 20.3932 66.451 20.4 66.9219C20.4169 67.3181 20.4 67.7182 20.4094 68.1163C20.4319 69.1285 20.8656 69.5755 21.8776 69.5868C23.0474 69.5999 24.219 69.5868 25.3906 69.5868C27.4128 69.5868 27.5893 69.4177 27.5987 67.3933C27.608 65.5829 28.3985 64.3077 30.1034 63.6373C30.3643 63.534 30.6197 63.4157 30.8807 63.3105C32.4597 62.672 33.8567 62.9631 35.0752 64.1444C35.293 64.3566 35.5014 64.5782 35.723 64.7885C36.4309 65.4571 37.0373 65.4702 37.7433 64.7885C38.7816 63.7744 39.8086 62.749 40.8244 61.7067C41.5022 61.0081 41.4778 60.4109 40.7906 59.6898C40.5484 59.4363 40.3062 59.179 40.0396 58.9386C37.6832 56.8014 39.8631 52.067 42.1725 51.7215C42.4955 51.6727 42.8184 51.6163 43.1432 51.5975C43.5188 51.575 43.8943 51.5976 44.2698 51.5863C45.1222 51.545 45.5691 51.113 45.5841 50.2717C45.6041 48.7493 45.6041 47.2262 45.5841 45.7026C45.5728 44.85 45.1297 44.4424 44.2585 44.4086C44.0013 44.3974 43.7441 44.4086 43.4868 44.4086C40.785 44.3936 38.6051 41.7663 39.0407 39.0714C39.2134 37.9803 39.8668 37.2235 40.6029 36.4798C40.9427 36.1286 41.1718 35.7042 41.4497 35.3154Z" fill="#FC7500"/>
<path d="M39.6078 16.8154C47.1068 16.8154 53.6052 22.1376 54.9157 29.5425C55.8414 34.7576 54.4313 39.3643 50.785 43.2518C50.2218 43.8546 49.5064 43.9278 48.9882 43.4602C48.47 42.9926 48.4381 42.2658 49.0201 41.6574C50.9165 39.7222 52.1869 37.2612 52.6664 34.5943C53.669 29.0298 50.9465 23.4616 45.8489 20.6747C41.076 18.0643 34.8443 18.8493 30.8188 22.5658C30.6018 22.7789 30.3696 22.976 30.124 23.1555C29.8861 23.3303 29.5906 23.4081 29.2975 23.3733C29.0043 23.3384 28.7353 23.1934 28.545 22.9677C28.3448 22.7468 28.2404 22.4556 28.2544 22.1578C28.2685 21.86 28.4 21.5799 28.6201 21.3789C29.3843 20.6564 30.2001 19.9904 31.061 19.3864C33.5915 17.6996 36.5668 16.8046 39.6078 16.8154Z" fill="#FC7500"/>
<path d="M24.0257 37.2047C30.0678 37.2817 34.8819 42.1119 34.7937 48.0425C34.6923 54.854 29.7542 58.6794 23.9994 58.747C17.8728 58.8184 13.1582 53.8492 13.2314 47.6538C13.299 41.9334 18.2615 37.1314 24.0257 37.2047ZM32.381 47.9599C32.3813 46.8571 32.1631 45.7651 31.7392 44.7471C31.3152 43.7291 30.6938 42.8051 29.9108 42.0286C29.1278 41.2521 28.1989 40.6385 27.1775 40.2231C26.1561 39.8077 25.0625 39.5988 23.96 39.6085C22.8509 39.6116 21.7535 39.8352 20.7316 40.2663C19.7097 40.6974 18.7837 41.3274 18.0074 42.1198C17.2311 42.9121 16.6201 43.8509 16.2099 44.8815C15.7997 45.9122 15.5984 47.0141 15.6178 48.1233C15.6441 52.6999 19.4294 56.3864 24.0802 56.3751C26.2957 56.3573 28.4137 55.4613 29.9698 53.8838C31.5259 52.3063 32.393 50.1759 32.381 47.9599Z" fill="#FC7500"/>
</g>
<defs>
<clipPath id="clip0_2_102">
<rect width="72" height="72" fill="white"/>
</clipPath>
</defs>
</svg>
