<svg width="185" height="139" viewBox="0 0 185 139" fill="none" xmlns="http://www.w3.org/2000/svg">
<path fill-rule="evenodd" clip-rule="evenodd" d="M7.63949 30.3418C7.64636 29.5633 7.42913 28.8003 7.0153 28.1497C6.60148 27.4992 6.00969 26.9906 5.31544 26.6885C4.62119 26.3865 3.85584 26.3047 3.11649 26.4535C2.37713 26.6023 1.69733 26.9751 1.16348 27.5243C0.629633 28.0736 0.265894 28.7745 0.118505 29.538C-0.0288837 30.3015 0.0466417 31.0931 0.335671 31.812C0.6247 32.531 1.11405 33.1449 1.74153 33.5756C2.36901 34.0063 3.10618 34.2344 3.85942 34.2309C4.85755 34.2262 5.81387 33.8155 6.52128 33.0877C7.22869 32.3599 7.63039 31.3734 7.63949 30.3418ZM3.9462 0.0716875C4.69232 0.0752332 5.4208 0.30693 6.03975 0.737593C6.6587 1.16826 7.1405 1.77862 7.42444 2.49179C7.70839 3.20496 7.78166 3.98903 7.63526 4.74524C7.48886 5.50144 7.12931 6.19595 6.60172 6.74127C6.07412 7.28659 5.40213 7.65833 4.67051 7.80965C3.93888 7.96097 3.18038 7.88512 2.49039 7.59163C1.8004 7.29814 1.20974 6.80016 0.793072 6.16041C0.376408 5.52067 0.152415 4.76778 0.148985 3.99659C0.148985 2.95565 0.548922 1.95732 1.26106 1.22126C1.97319 0.485198 2.93909 0.0716875 3.9462 0.0716875ZM29.175 0.0716875C29.9219 0.0716956 30.652 0.300393 31.2733 0.72891C31.8945 1.15743 32.379 1.76655 32.6656 2.47941C32.9522 3.19228 33.028 3.97692 32.8836 4.73431C32.7391 5.4917 32.3808 6.18789 31.8538 6.73499C31.3269 7.2821 30.6552 7.65561 29.9231 7.80838C29.191 7.96115 28.4314 7.88633 27.7404 7.59337C27.0494 7.3004 26.4578 6.80242 26.0403 6.16229C25.6229 5.52215 25.3984 4.76855 25.395 3.99659C25.399 2.97537 25.7862 1.99559 26.4751 1.26351C27.164 0.531433 28.1007 0.104173 29.0883 0.0716875H29.175ZM29.175 26.4348C29.9227 26.4348 30.6533 26.664 31.275 27.0933C31.8966 27.5226 32.3812 28.1328 32.6673 28.8467C32.9534 29.5606 33.0282 30.3462 32.8823 31.104C32.7365 31.8619 32.3766 32.5581 31.8479 33.1045C31.3193 33.6509 30.6457 34.023 29.9125 34.1737C29.1792 34.3245 28.419 34.2471 27.7283 33.9514C27.0376 33.6557 26.4474 33.1549 26.0321 32.5124C25.6167 31.8699 25.395 31.1145 25.395 30.3418C25.3991 29.3223 25.7868 28.3445 26.4761 27.6153C27.1655 26.8861 28.1023 26.4628 29.0883 26.4348H29.175ZM7.63949 56.3286C7.64636 55.5501 7.42913 54.787 7.0153 54.1365C6.60148 53.486 6.00969 52.9774 5.31544 52.6753C4.62119 52.3733 3.85584 52.2914 3.11649 52.4403C2.37713 52.5891 1.69733 52.9618 1.16348 53.5111C0.629633 54.0604 0.265894 54.7613 0.118505 55.5248C-0.0288837 56.2883 0.0466417 57.0799 0.335671 57.7988C0.6247 58.5178 1.11405 59.1317 1.74153 59.5624C2.36901 59.9931 3.10618 60.2212 3.85942 60.2177C4.85755 60.213 5.81387 59.8023 6.52128 59.0745C7.22869 58.3467 7.63039 57.3602 7.63949 56.3286ZM29.0883 52.4037C29.8351 52.4037 30.5652 52.6324 31.1865 53.0609C31.8077 53.4894 32.2922 54.0986 32.5788 54.8114C32.8654 55.5243 32.9412 56.3089 32.7968 57.0663C32.6523 57.8237 32.2942 58.5199 31.7673 59.067C31.2404 59.6141 30.5684 59.9876 29.8363 60.1404C29.1042 60.2932 28.3446 60.2183 27.6536 59.9254C26.9626 59.6324 26.3712 59.1344 25.9538 58.4943C25.5363 57.8542 25.3116 57.1006 25.3082 56.3286C25.3127 55.2922 25.712 54.2993 26.4194 53.5648C27.1268 52.8302 28.0856 52.4131 29.0883 52.4037ZM7.63949 82.6738C7.64636 81.8953 7.42913 81.1323 7.0153 80.4818C6.60148 79.8312 6.00969 79.3226 5.31544 79.0205C4.62119 78.7185 3.85584 78.6367 3.11649 78.7855C2.37713 78.9343 1.69733 79.3071 1.16348 79.8563C0.629633 80.4056 0.265894 81.1065 0.118505 81.87C-0.0288837 82.6335 0.0466417 83.4251 0.335671 84.1441C0.6247 84.863 1.11405 85.4769 1.74153 85.9076C2.36901 86.3383 3.10618 86.5664 3.85942 86.5629C4.85755 86.5582 5.81387 86.1476 6.52128 85.4197C7.22869 84.6919 7.63039 83.7055 7.63949 82.6738ZM29.0883 78.7669C29.8359 78.7669 30.5668 78.996 31.1884 79.4253C31.81 79.8546 32.2944 80.4648 32.5805 81.1787C32.8666 81.8926 32.9414 82.6782 32.7955 83.436C32.6497 84.1939 32.2898 84.8901 31.7611 85.4365C31.2325 85.9829 30.5589 86.355 29.8257 86.5058C29.0925 86.6565 28.3325 86.5791 27.6418 86.2834C26.9511 85.9877 26.3607 85.487 25.9453 84.8445C25.53 84.202 25.3082 83.4466 25.3082 82.6738C25.3128 81.6391 25.7126 80.6481 26.4205 79.9164C27.1284 79.1847 28.0872 78.7716 29.0883 78.7669ZM7.63949 108.643C7.64292 107.865 7.42277 107.104 7.00684 106.455C6.5909 105.807 5.99795 105.301 5.30338 105.002C4.60881 104.703 3.84391 104.624 3.10569 104.774C2.36747 104.925 1.68924 105.299 1.15713 105.849C0.625025 106.399 0.262991 107.1 0.117024 107.863C-0.0289434 108.627 0.047807 109.417 0.337364 110.135C0.626921 110.853 1.11611 111.466 1.74322 111.896C2.37034 112.326 3.10692 112.553 3.85942 112.55C4.86193 112.55 5.82341 112.138 6.53229 111.405C7.24117 110.673 7.63949 109.679 7.63949 108.643ZM29.0883 104.718C29.8366 104.718 30.5681 104.947 31.1901 105.378C31.8121 105.808 32.2966 106.419 32.5822 107.134C32.8678 107.849 32.9415 108.635 32.7943 109.394C32.647 110.152 32.2854 110.848 31.755 111.394C31.2246 111.939 30.5495 112.31 29.8151 112.459C29.0807 112.608 28.3201 112.528 27.6297 112.229C26.9393 111.931 26.3501 111.427 25.9368 110.782C25.5236 110.137 25.3048 109.38 25.3082 108.607C25.3128 107.574 25.7132 106.585 26.4215 105.856C27.1299 105.127 28.0888 104.718 29.0883 104.718ZM7.63949 134.97C7.64636 134.191 7.42913 133.428 7.0153 132.778C6.60148 132.127 6.00969 131.619 5.31544 131.317C4.62119 131.015 3.85584 130.933 3.11649 131.082C2.37713 131.23 1.69733 131.603 1.16348 132.153C0.629633 132.702 0.265894 133.403 0.118505 134.166C-0.0288837 134.93 0.0466417 135.721 0.335671 136.44C0.6247 137.159 1.11405 137.773 1.74153 138.204C2.36901 138.634 3.10618 138.863 3.85942 138.859C4.85299 138.859 5.80668 138.455 6.51409 137.734C7.22149 137.013 7.62582 136.033 7.63949 135.006V134.97ZM29.0883 131.063C29.8359 131.063 30.5668 131.292 31.1884 131.721C31.81 132.151 32.2944 132.761 32.5805 133.475C32.8666 134.189 32.9414 134.974 32.7955 135.732C32.6497 136.49 32.2898 137.186 31.7611 137.733C31.2325 138.279 30.5589 138.651 29.8257 138.802C29.0925 138.953 28.3325 138.875 27.6418 138.58C26.9511 138.284 26.3607 137.783 25.9453 137.141C25.53 136.498 25.3082 135.743 25.3082 134.97C25.3173 133.94 25.7198 132.955 26.4277 132.231C27.1356 131.506 28.0917 131.099 29.0883 131.099V131.063ZM58.1317 3.96074C58.1386 3.18298 57.9216 2.42065 57.5086 1.7705C57.0955 1.12036 56.5049 0.611723 55.8117 0.309152C55.1184 0.00658211 54.3539 -0.0762715 53.615 0.0710995C52.8762 0.218471 52.1964 0.589415 51.6618 1.13687C51.1273 1.68432 50.7622 2.38359 50.6128 3.14591C50.4635 3.90822 50.5366 4.69922 50.823 5.4185C51.1094 6.13777 51.596 6.75288 52.2212 7.18576C52.8464 7.61864 53.582 7.84976 54.3345 7.8498C55.3283 7.84539 56.2812 7.44024 56.9904 6.72058C57.6996 6.00092 58.1091 5.02359 58.1317 3.99659V3.96074ZM79.5805 0.035836C80.3273 0.0358441 81.0574 0.264542 81.6787 0.693059C82.2999 1.12158 82.7844 1.73071 83.071 2.44357C83.3576 3.15644 83.4334 3.94109 83.289 4.69847C83.1445 5.45586 82.7864 6.15204 82.2595 6.69914C81.7326 7.24625 81.0606 7.61976 80.3285 7.77253C79.5964 7.9253 78.8368 7.85048 78.1458 7.55751C77.4548 7.26455 76.8634 6.76657 76.446 6.12644C76.0285 5.4863 75.8038 4.7327 75.8004 3.96074C75.8139 2.93056 76.2172 1.94679 76.9237 1.21995C77.6301 0.49311 78.5837 0.0809584 79.5805 0.0716875V0.035836ZM58.1317 30.306C58.1386 29.5282 57.9216 28.7659 57.5086 28.1157C57.0955 27.4656 56.5049 26.9569 55.8117 26.6544C55.1184 26.3518 54.3539 26.269 53.615 26.4163C52.8762 26.5637 52.1964 26.9347 51.6618 27.4821C51.1273 28.0296 50.7622 28.7288 50.6128 29.4911C50.4635 30.2535 50.5366 31.0444 50.823 31.7637C51.1094 32.483 51.596 33.0981 52.2212 33.531C52.8464 33.9639 53.582 34.195 54.3345 34.195C55.3297 34.1952 56.2851 33.7915 56.9953 33.0709C57.7055 32.3503 58.1135 31.3703 58.1317 30.3418V30.306ZM79.5805 26.399C80.3281 26.399 81.059 26.6281 81.6806 27.0574C82.3022 27.4867 82.7866 28.0969 83.0727 28.8108C83.3588 29.5247 83.4336 30.3103 83.2877 31.0682C83.1419 31.8261 82.782 32.5222 82.2533 33.0686C81.7247 33.615 81.0511 33.9871 80.3179 34.1379C79.5847 34.2886 78.8247 34.2113 78.134 33.9156C77.4433 33.6198 76.8529 33.1191 76.4375 32.4766C76.0221 31.8341 75.8004 31.0787 75.8004 30.306C75.814 29.2775 76.2178 28.2956 76.9247 27.5716C77.6317 26.8476 78.5853 26.4394 79.5805 26.4348V26.399ZM58.1317 56.3286C58.1386 55.5508 57.9216 54.7885 57.5086 54.1384C57.0955 53.4882 56.5049 52.9796 55.8117 52.677C55.1184 52.3744 54.3539 52.2916 53.615 52.439C52.8762 52.5863 52.1964 52.9573 51.6618 53.5047C51.1273 54.0522 50.7622 54.7514 50.6128 55.5138C50.4635 56.2761 50.5366 57.0671 50.823 57.7864C51.1094 58.5056 51.596 59.1208 52.2212 59.5536C52.8464 59.9865 53.582 60.2176 54.3345 60.2177C55.3342 60.2131 56.2921 59.803 57.0023 59.0756C57.7124 58.3483 58.1181 57.3619 58.1317 56.3286ZM79.5805 52.4037C80.3273 52.4037 81.0574 52.6324 81.6787 53.0609C82.2999 53.4894 82.7844 54.0986 83.071 54.8114C83.3576 55.5243 83.4334 56.3089 83.289 57.0663C83.1445 57.8237 82.7864 58.5199 82.2595 59.067C81.7326 59.6141 81.0606 59.9876 80.3285 60.1404C79.5964 60.2932 78.8368 60.2183 78.1458 59.9254C77.4548 59.6324 76.8634 59.1344 76.446 58.4943C76.0285 57.8542 75.8038 57.1006 75.8004 56.3286C75.8049 55.2922 76.2042 54.2993 76.9116 53.5648C77.619 52.8302 78.5778 52.4131 79.5805 52.4037ZM58.1317 82.6738C58.1386 81.8961 57.9216 81.1338 57.5086 80.4836C57.0955 79.8335 56.5049 79.3248 55.8117 79.0223C55.1184 78.7197 54.3539 78.6368 53.615 78.7842C52.8762 78.9315 52.1964 79.3025 51.6618 79.85C51.1273 80.3974 50.7622 81.0967 50.6128 81.859C50.4635 82.6213 50.5366 83.4123 50.823 84.1316C51.1094 84.8509 51.596 85.466 52.2212 85.8988C52.8464 86.3317 53.582 86.5629 54.3345 86.5629C55.3356 86.5629 56.2962 86.1544 57.0073 85.426C57.7185 84.6977 58.1226 83.7085 58.1317 82.6738ZM79.5805 78.7669C80.3281 78.7669 81.059 78.996 81.6806 79.4253C82.3022 79.8546 82.7866 80.4648 83.0727 81.1787C83.3588 81.8926 83.4336 82.6782 83.2877 83.436C83.1419 84.1939 82.782 84.8901 82.2533 85.4365C81.7247 85.9829 81.0511 86.355 80.3179 86.5058C79.5847 86.6565 78.8247 86.5791 78.134 86.2834C77.4433 85.9877 76.8529 85.487 76.4375 84.8445C76.0221 84.202 75.8004 83.4466 75.8004 82.6738C75.805 81.6391 76.2048 80.6481 76.9127 79.9164C77.6206 79.1847 78.5794 78.7716 79.5805 78.7669ZM58.1317 108.643C58.1351 107.866 57.9153 107.105 57.5001 106.457C57.0849 105.809 56.4932 105.304 55.7996 105.004C55.106 104.704 54.342 104.624 53.6042 104.773C52.8665 104.923 52.1883 105.295 51.6555 105.843C51.1227 106.391 50.7593 107.091 50.6113 107.852C50.4634 108.614 50.5376 109.404 50.8245 110.123C51.1114 110.841 51.5981 111.455 52.2229 111.887C52.8478 112.319 53.5827 112.55 54.3345 112.55C54.8323 112.552 55.3257 112.453 55.7863 112.257C56.2469 112.062 56.6655 111.775 57.0183 111.412C57.3712 111.049 57.6513 110.617 57.8424 110.142C58.0334 109.667 58.1317 109.157 58.1317 108.643ZM58.1317 135.006C58.1386 134.228 57.9216 133.466 57.5086 132.816C57.0955 132.165 56.5049 131.657 55.8117 131.354C55.1184 131.052 54.3539 130.969 53.615 131.116C52.8762 131.264 52.1964 131.635 51.6618 132.182C51.1273 132.729 50.7622 133.429 50.6128 134.191C50.4635 134.953 50.5366 135.744 50.823 136.464C51.1094 137.183 51.596 137.798 52.2212 138.231C52.8464 138.664 53.582 138.895 54.3345 138.895C54.8309 138.897 55.3228 138.799 55.7822 138.604C56.2417 138.41 56.6596 138.124 57.0122 137.763C57.3648 137.402 57.6452 136.973 57.8373 136.5C58.0293 136.027 58.1294 135.519 58.1317 135.006ZM79.5805 131.099C80.3281 131.099 81.059 131.328 81.6806 131.757C82.3022 132.187 82.7866 132.797 83.0727 133.511C83.3588 134.225 83.4336 135.01 83.2877 135.768C83.1419 136.526 82.782 137.222 82.2533 137.769C81.7247 138.315 81.0511 138.687 80.3179 138.838C79.5847 138.989 78.8247 138.911 78.134 138.615C77.4433 138.32 76.8529 137.819 76.4375 137.176C76.0221 136.534 75.8004 135.779 75.8004 135.006C75.8004 134.493 75.8983 133.985 76.0883 133.511C76.2782 133.037 76.5566 132.606 76.9076 132.243C77.2586 131.88 77.6754 131.593 78.134 131.396C78.5926 131.2 79.0841 131.099 79.5805 131.099ZM108.624 3.99659C108.631 3.21883 108.414 2.4565 108.001 1.80636C107.588 1.15621 106.997 0.647561 106.304 0.34499C105.611 0.04242 104.846 -0.0404337 104.107 0.106937C103.368 0.254308 102.689 0.625267 102.154 1.17272C101.619 1.72017 101.254 2.41944 101.105 3.18176C100.956 3.94408 101.029 4.73506 101.315 5.45434C101.602 6.17361 102.088 6.78874 102.713 7.22162C103.339 7.65449 104.074 7.88561 104.827 7.88565C105.826 7.88105 106.784 7.47096 107.494 6.74362C108.205 6.01629 108.61 5.02985 108.624 3.99659ZM130.073 0.0716875C130.82 0.0716956 131.55 0.300393 132.171 0.72891C132.792 1.15743 133.277 1.76655 133.563 2.47941C133.85 3.19228 133.926 3.97692 133.781 4.73431C133.637 5.4917 133.279 6.18789 132.752 6.73499C132.225 7.2821 131.553 7.65561 130.821 7.80838C130.089 7.96115 129.329 7.88633 128.638 7.59337C127.947 7.3004 127.356 6.80242 126.938 6.16229C126.521 5.52215 126.296 4.76855 126.293 3.99659C126.297 2.96018 126.696 1.96727 127.404 1.23273C128.111 0.498194 129.07 0.081099 130.073 0.0716875ZM108.624 30.3418C108.631 29.5641 108.414 28.8017 108.001 28.1516C107.588 27.5014 106.997 26.9928 106.304 26.6902C105.611 26.3877 104.846 26.3048 104.107 26.4522C103.368 26.5995 102.689 26.9705 102.154 27.5179C101.619 28.0654 101.254 28.7647 101.105 29.527C100.956 30.2893 101.029 31.0803 101.315 31.7996C101.602 32.5188 102.088 33.134 102.713 33.5668C103.339 33.9997 104.074 34.2308 104.827 34.2309C105.828 34.2309 106.788 33.8223 107.5 33.094C108.211 32.3657 108.615 31.3765 108.624 30.3418ZM130.073 26.4348C130.82 26.4348 131.551 26.664 132.173 27.0933C132.794 27.5226 133.279 28.1328 133.565 28.8467C133.851 29.5606 133.926 30.3462 133.78 31.104C133.634 31.8619 133.274 32.5581 132.746 33.1045C132.217 33.6509 131.543 34.023 130.81 34.1737C130.077 34.3245 129.317 34.2471 128.626 33.9514C127.935 33.6557 127.345 33.1549 126.93 32.5124C126.514 31.8699 126.293 31.1145 126.293 30.3418C126.297 29.3071 126.697 28.316 127.405 27.5844C128.113 26.8527 129.072 26.4396 130.073 26.4348ZM108.624 56.3286C108.631 55.5508 108.414 54.7885 108.001 54.1384C107.588 53.4882 106.997 52.9796 106.304 52.677C105.611 52.3744 104.846 52.2916 104.107 52.439C103.368 52.5863 102.689 52.9573 102.154 53.5047C101.619 54.0522 101.254 54.7514 101.105 55.5138C100.956 56.2761 101.029 57.0671 101.315 57.7864C101.602 58.5056 102.088 59.1208 102.713 59.5536C103.339 59.9865 104.074 60.2176 104.827 60.2177C105.826 60.2131 106.784 59.803 107.494 59.0756C108.205 58.3483 108.61 57.3619 108.624 56.3286ZM130.073 52.4037C130.82 52.4037 131.55 52.6324 132.171 53.0609C132.792 53.4894 133.277 54.0986 133.563 54.8114C133.85 55.5243 133.926 56.3089 133.781 57.0663C133.637 57.8237 133.279 58.5199 132.752 59.067C132.225 59.6141 131.553 59.9876 130.821 60.1404C130.089 60.2932 129.329 60.2183 128.638 59.9254C127.947 59.6324 127.356 59.1344 126.938 58.4943C126.521 57.8542 126.296 57.1006 126.293 56.3286C126.297 55.2922 126.696 54.2993 127.404 53.5648C128.111 52.8302 129.07 52.4131 130.073 52.4037ZM108.624 82.6738C108.631 81.8961 108.414 81.1338 108.001 80.4836C107.588 79.8335 106.997 79.3248 106.304 79.0223C105.611 78.7197 104.846 78.6368 104.107 78.7842C103.368 78.9315 102.689 79.3025 102.154 79.85C101.619 80.3974 101.254 81.0967 101.105 81.859C100.956 82.6213 101.029 83.4123 101.315 84.1316C101.602 84.8509 102.088 85.466 102.713 85.8988C103.339 86.3317 104.074 86.5629 104.827 86.5629C105.828 86.5629 106.788 86.1544 107.5 85.426C108.211 84.6977 108.615 83.7085 108.624 82.6738ZM130.073 78.7669C130.82 78.7669 131.551 78.996 132.173 79.4253C132.794 79.8546 133.279 80.4648 133.565 81.1787C133.851 81.8926 133.926 82.6782 133.78 83.436C133.634 84.1939 133.274 84.8901 132.746 85.4365C132.217 85.9829 131.543 86.355 130.81 86.5058C130.077 86.6565 129.317 86.5791 128.626 86.2834C127.935 85.9877 127.345 85.487 126.93 84.8445C126.514 84.202 126.293 83.4466 126.293 82.6738C126.297 81.6391 126.697 80.6481 127.405 79.9164C128.113 79.1847 129.072 78.7716 130.073 78.7669ZM108.624 108.643C108.627 107.866 108.407 107.105 107.992 106.457C107.577 105.809 106.985 105.304 106.292 105.004C105.598 104.704 104.834 104.624 104.096 104.773C103.359 104.923 102.68 105.295 102.148 105.843C101.615 106.391 101.251 107.091 101.104 107.852C100.956 108.614 101.03 109.404 101.317 110.123C101.604 110.841 102.09 111.455 102.715 111.887C103.34 112.319 104.075 112.55 104.827 112.55C105.325 112.552 105.818 112.453 106.278 112.257C106.739 112.062 107.158 111.775 107.511 111.412C107.863 111.049 108.144 110.617 108.335 110.142C108.526 109.667 108.624 109.157 108.624 108.643ZM130.073 104.754C130.821 104.754 131.552 104.983 132.174 105.413C132.796 105.843 133.281 106.455 133.567 107.17C133.852 107.885 133.926 108.671 133.779 109.429C133.631 110.188 133.27 110.884 132.739 111.43C132.209 111.975 131.534 112.346 130.799 112.495C130.065 112.643 129.304 112.563 128.614 112.265C127.924 111.967 127.334 111.463 126.921 110.818C126.508 110.173 126.289 109.416 126.293 108.643C126.291 108.128 126.386 107.618 126.575 107.142C126.764 106.666 127.042 106.233 127.394 105.868C127.745 105.504 128.162 105.214 128.622 105.017C129.082 104.819 129.575 104.718 130.073 104.718V104.754ZM108.624 135.006C108.631 134.228 108.414 133.466 108.001 132.816C107.588 132.165 106.997 131.657 106.304 131.354C105.611 131.052 104.846 130.969 104.107 131.116C103.368 131.264 102.689 131.635 102.154 132.182C101.619 132.729 101.254 133.429 101.105 134.191C100.956 134.953 101.029 135.744 101.315 136.464C101.602 137.183 102.088 137.798 102.713 138.231C103.339 138.664 104.074 138.895 104.827 138.895C105.323 138.897 105.815 138.799 106.274 138.604C106.734 138.41 107.152 138.124 107.505 137.763C107.857 137.402 108.137 136.973 108.329 136.5C108.522 136.027 108.622 135.519 108.624 135.006ZM130.073 131.099C130.82 131.099 131.551 131.328 132.173 131.757C132.794 132.187 133.279 132.797 133.565 133.511C133.851 134.225 133.926 135.01 133.78 135.768C133.634 136.526 133.274 137.222 132.746 137.769C132.217 138.315 131.543 138.687 130.81 138.838C130.077 138.989 129.317 138.911 128.626 138.615C127.935 138.32 127.345 137.819 126.93 137.176C126.514 136.534 126.293 135.779 126.293 135.006C126.293 134.493 126.39 133.985 126.58 133.511C126.77 133.037 127.049 132.606 127.4 132.243C127.751 131.88 128.168 131.593 128.626 131.396C129.085 131.2 129.576 131.099 130.073 131.099ZM159.116 3.99659C159.113 3.22109 158.887 2.46402 158.468 1.82093C158.048 1.17785 157.454 0.677568 156.76 0.383248C156.066 0.088928 155.303 0.0137621 154.567 0.167223C153.832 0.320684 153.157 0.695903 152.628 1.24552C152.098 1.79513 151.738 2.4945 151.593 3.25536C151.448 4.01622 151.524 4.80447 151.812 5.52061C152.1 6.23675 152.587 6.84868 153.211 7.27917C153.835 7.70965 154.569 7.9394 155.319 7.93941C156.328 7.93467 157.293 7.51718 158.005 6.77827C158.716 6.03936 159.116 5.0392 159.116 3.99659ZM180.565 0.0716875C181.312 0.0716956 182.042 0.300393 182.663 0.72891C183.284 1.15743 183.769 1.76655 184.055 2.47941C184.342 3.19228 184.418 3.97692 184.273 4.73431C184.129 5.4917 183.771 6.18789 183.244 6.73499C182.717 7.2821 182.045 7.65561 181.313 7.80838C180.581 7.96115 179.821 7.88633 179.13 7.59337C178.439 7.3004 177.848 6.80242 177.43 6.16229C177.013 5.52215 176.788 4.76855 176.785 3.99659C176.79 2.96018 177.189 1.96727 177.896 1.23273C178.603 0.498194 179.562 0.081099 180.565 0.0716875ZM159.116 30.3418C159.123 29.5641 158.906 28.8017 158.493 28.1516C158.08 27.5014 157.489 26.9928 156.796 26.6902C156.103 26.3877 155.338 26.3048 154.599 26.4522C153.861 26.5995 153.181 26.9705 152.646 27.5179C152.112 28.0654 151.747 28.7647 151.597 29.527C151.448 30.2893 151.521 31.0803 151.807 31.7996C152.094 32.5188 152.58 33.134 153.206 33.5668C153.831 33.9997 154.566 34.2308 155.319 34.2309C156.32 34.2309 157.281 33.8223 157.992 33.094C158.703 32.3657 159.107 31.3765 159.116 30.3418ZM180.565 26.4348C181.312 26.4348 182.043 26.664 182.665 27.0933C183.287 27.5226 183.771 28.1328 184.057 28.8467C184.343 29.5606 184.418 30.3462 184.272 31.104C184.126 31.8619 183.766 32.5581 183.238 33.1045C182.709 33.6509 182.036 34.023 181.302 34.1737C180.569 34.3245 179.809 34.2471 179.118 33.9514C178.428 33.6557 177.837 33.1549 177.422 32.5124C177.007 31.8699 176.785 31.1145 176.785 30.3418C176.79 29.3071 177.189 28.316 177.897 27.5844C178.605 26.8527 179.564 26.4396 180.565 26.4348ZM159.116 56.3286C159.123 55.5508 158.906 54.7885 158.493 54.1384C158.08 53.4882 157.489 52.9796 156.796 52.677C156.103 52.3744 155.338 52.2916 154.599 52.439C153.861 52.5863 153.181 52.9573 152.646 53.5047C152.112 54.0522 151.747 54.7514 151.597 55.5138C151.448 56.2761 151.521 57.0671 151.807 57.7864C152.094 58.5056 152.58 59.1208 153.206 59.5536C153.831 59.9865 154.566 60.2176 155.319 60.2177C156.319 60.2131 157.277 59.803 157.987 59.0756C158.697 58.3483 159.102 57.3619 159.116 56.3286ZM180.565 52.4037C181.312 52.4037 182.042 52.6324 182.663 53.0609C183.284 53.4894 183.769 54.0986 184.055 54.8114C184.342 55.5243 184.418 56.3089 184.273 57.0663C184.129 57.8237 183.771 58.5199 183.244 59.067C182.717 59.6141 182.045 59.9876 181.313 60.1404C180.581 60.2932 179.821 60.2183 179.13 59.9254C178.439 59.6324 177.848 59.1344 177.43 58.4943C177.013 57.8542 176.788 57.1006 176.785 56.3286C176.79 55.2922 177.189 54.2993 177.896 53.5648C178.603 52.8302 179.562 52.4131 180.565 52.4037ZM159.116 82.6738C159.123 81.8961 158.906 81.1338 158.493 80.4836C158.08 79.8335 157.489 79.3248 156.796 79.0223C156.103 78.7197 155.338 78.6368 154.599 78.7842C153.861 78.9315 153.181 79.3025 152.646 79.85C152.112 80.3974 151.747 81.0967 151.597 81.859C151.448 82.6213 151.521 83.4123 151.807 84.1316C152.094 84.8509 152.58 85.466 153.206 85.8988C153.831 86.3317 154.566 86.5629 155.319 86.5629C156.32 86.5629 157.281 86.1544 157.992 85.426C158.703 84.6977 159.107 83.7085 159.116 82.6738ZM180.565 78.7669C181.312 78.7669 182.043 78.996 182.665 79.4253C183.287 79.8546 183.771 80.4648 184.057 81.1787C184.343 81.8926 184.418 82.6782 184.272 83.436C184.126 84.1939 183.766 84.8901 183.238 85.4365C182.709 85.9829 182.036 86.355 181.302 86.5058C180.569 86.6565 179.809 86.5791 179.118 86.2834C178.428 85.9877 177.837 85.487 177.422 84.8445C177.007 84.202 176.785 83.4466 176.785 82.6738C176.79 81.6391 177.189 80.6481 177.897 79.9164C178.605 79.1847 179.564 78.7716 180.565 78.7669ZM159.116 108.643C159.12 107.866 158.9 107.105 158.484 106.457C158.069 105.809 157.478 105.304 156.784 105.004C156.09 104.704 155.326 104.624 154.589 104.773C153.851 104.923 153.173 105.295 152.64 105.843C152.107 106.391 151.744 107.091 151.596 107.852C151.448 108.614 151.522 109.404 151.809 110.123C152.096 110.841 152.582 111.455 153.207 111.887C153.832 112.319 154.567 112.55 155.319 112.55C155.817 112.552 156.31 112.453 156.771 112.257C157.231 112.062 157.65 111.775 158.003 111.412C158.356 111.049 158.636 110.617 158.827 110.142C159.018 109.667 159.116 109.157 159.116 108.643ZM180.565 104.754C181.313 104.754 182.045 104.983 182.667 105.413C183.289 105.843 183.773 106.455 184.059 107.17C184.344 107.885 184.418 108.671 184.271 109.429C184.124 110.188 183.762 110.884 183.232 111.43C182.701 111.975 182.026 112.346 181.292 112.495C180.557 112.643 179.797 112.563 179.106 112.265C178.416 111.967 177.827 111.463 177.413 110.818C177 110.173 176.782 109.416 176.785 108.643C176.783 108.128 176.879 107.618 177.068 107.142C177.257 106.666 177.535 106.233 177.886 105.868C178.237 105.504 178.655 105.214 179.114 105.017C179.574 104.819 180.067 104.718 180.565 104.718V104.754ZM159.116 135.006C159.123 134.228 158.906 133.466 158.493 132.816C158.08 132.165 157.489 131.657 156.796 131.354C156.103 131.052 155.338 130.969 154.599 131.116C153.861 131.264 153.181 131.635 152.646 132.182C152.112 132.729 151.747 133.429 151.597 134.191C151.448 134.953 151.521 135.744 151.807 136.464C152.094 137.183 152.58 137.798 153.206 138.231C153.831 138.664 154.566 138.895 155.319 138.895C155.815 138.897 156.307 138.799 156.767 138.604C157.226 138.41 157.644 138.124 157.997 137.763C158.349 137.402 158.63 136.973 158.822 136.5C159.014 136.027 159.114 135.519 159.116 135.006ZM180.565 131.099C181.312 131.099 182.043 131.328 182.665 131.757C183.287 132.187 183.771 132.797 184.057 133.511C184.343 134.225 184.418 135.01 184.272 135.768C184.126 136.526 183.766 137.222 183.238 137.769C182.709 138.315 182.036 138.687 181.302 138.838C180.569 138.989 179.809 138.911 179.118 138.615C178.428 138.32 177.837 137.819 177.422 137.176C177.007 136.534 176.785 135.779 176.785 135.006C176.785 134.493 176.883 133.985 177.073 133.511C177.263 133.037 177.541 132.606 177.892 132.243C178.243 131.88 178.66 131.593 179.118 131.396C179.577 131.2 180.068 131.099 180.565 131.099Z" fill="#FC7500" fill-opacity="0.65"/>
</svg>
