<svg width="62" height="62" viewBox="0 0 62 62" fill="none" xmlns="http://www.w3.org/2000/svg">
<g clip-path="url(#clip0_2_107)">
<path d="M61.9999 35.6003V36.8115C61.9766 36.8425 61.9365 36.8723 61.9313 36.9059C61.3194 40.9628 56.4974 42.7201 53.4492 40.0233C53.1801 39.7865 53.0054 39.8848 52.77 40.0388C51.4399 40.9123 50.1022 41.7741 48.7683 42.6437C48.2158 43.0035 47.6646 43.3697 47.1006 43.7411C47.2299 44.0193 47.336 44.2587 47.4447 44.4916C50.4334 50.9618 47.2066 58.7532 40.4996 61.1847C39.5086 61.5444 38.4528 61.7295 37.4268 61.9961H35.0048C34.8956 61.951 34.7826 61.9155 34.6672 61.89C31.3279 61.459 28.5708 59.9489 26.5163 57.2909C25.6404 56.1587 25.0064 54.84 24.2068 53.5123L19.6785 54.5838C19.6294 54.9798 19.5996 55.3408 19.5401 55.6967C19.152 58.026 17.1802 59.7315 14.6819 59.9178C12.5704 60.0757 10.3218 58.5462 9.63608 56.486C8.76665 53.8786 9.90261 51.2167 12.3789 50.0547C14.7298 48.9522 17.5282 49.8593 18.9255 52.195C19.0976 52.4823 19.2464 52.5832 19.5931 52.4875C20.8805 52.1575 22.1807 51.8702 23.4745 51.5609C23.6282 51.5135 23.7782 51.4551 23.9235 51.3862C23.6579 49.5522 23.806 47.6819 24.3569 45.9125C24.9093 44.1357 25.8525 42.5803 27.114 41.1556C25.7477 39.6532 24.4112 38.1793 23.0657 36.7028C19.1041 39.5251 14.898 39.9896 10.4253 38.1793C9.8638 39.1847 9.33981 40.1604 8.77701 41.1129C8.57518 41.4558 8.62952 41.6628 8.89087 41.9436C11.0256 44.2444 10.785 47.5352 8.35264 49.5151C6.85442 50.734 4.57734 50.9631 2.88765 50.0624C1.00776 49.0609 -0.126899 47.1107 0.0412941 45.1761C0.235364 42.9944 1.59385 41.2164 3.51643 40.5862C4.55985 40.2422 5.68399 40.2286 6.7354 40.5474L8.60881 37.1738C4.98618 34.5029 3.02478 30.9857 3.16709 26.463C3.30941 21.9404 5.51922 18.5694 9.27123 16.1379L6.42488 10.162C6.26186 10.1931 6.16612 10.2164 6.0665 10.2306C3.95761 10.5373 2.22522 9.84241 0.992231 8.12651C-0.172185 6.50896 -0.314509 4.70895 0.565272 2.918C1.51363 0.986001 3.15287 0.00641335 5.28763 0.0141776C6.3031 0.0275466 7.29145 0.343987 8.12591 0.922919C8.96038 1.50185 9.60293 2.31688 9.97118 3.26351C10.7475 5.31715 10.2817 7.43032 8.67739 8.91199C8.35782 9.20703 8.33971 9.41408 8.51825 9.7777C9.29453 11.3513 10.032 12.939 10.7876 14.5217C10.9053 14.7688 11.0282 15.0134 11.1188 15.1971C17.7754 13.3195 22.8509 15.3265 26.5344 21.0566L37.8344 16.2686C37.0612 13.9524 37.0066 11.4565 37.6778 9.10868C36.6221 8.72047 35.6285 8.33226 34.6206 7.99711C34.4912 7.95311 34.2221 8.09157 34.1173 8.22486C32.1766 10.6835 28.9771 11.0316 26.5809 9.02716C24.8395 7.57137 24.3103 4.86036 25.3764 2.85589C26.5551 0.640495 28.999 -0.467205 31.2748 0.183696C33.7421 0.890242 35.186 2.90118 35.12 5.5242C35.12 5.69631 35.2338 5.97711 35.3671 6.03146C36.3504 6.42744 37.3531 6.77942 38.3286 7.13657C38.3731 7.09733 38.4138 7.05401 38.4502 7.00717C38.5279 6.86612 38.5938 6.7186 38.6741 6.57884C41.0107 2.5492 44.456 0.209577 49.1448 0.0219415C55.1053 -0.217456 60.186 3.70219 61.6351 9.4956C61.7644 10.0378 61.877 10.5878 61.996 11.1326V13.555C61.952 13.7478 61.8938 13.9432 61.8666 14.1347C60.9261 20.7149 54.9487 25.2984 48.7062 24.7161C47.9299 24.6449 47.1639 24.5129 46.3579 24.4042C44.6863 29.0434 43.0186 33.6734 41.3367 38.3436C43.1341 39.1928 44.7113 40.4456 45.9452 42.0045C47.8445 40.7712 49.6972 39.5535 51.5654 38.3669C51.9445 38.1262 52.0015 37.9062 51.8773 37.487C51.264 35.4165 52.1554 33.0678 53.9693 31.8695C54.8763 31.2749 55.9464 30.9786 57.03 31.0222C58.1135 31.0659 59.1564 31.4472 60.0126 32.1128C61.1512 33.0199 61.723 34.2208 61.9999 35.6003ZM38.5925 18.189L27.3029 22.9769C28.6109 27.6186 27.7117 31.7 24.5859 35.3065C25.934 36.7895 27.2744 38.2634 28.6368 39.7593C31.8997 37.3757 35.4693 36.6536 39.3947 37.6358L44.4211 23.6964C41.1051 21.7476 40.5061 21.0785 38.5925 18.189ZM39.863 52.1756C41.7779 52.9973 43.1234 54.3975 43.9566 56.3165C47.7824 52.0462 47.1691 45.2098 42.7081 41.6059C38.0168 37.8157 31.3136 38.7111 27.757 43.6285C24.5419 48.0748 25.8279 53.8177 28.4039 56.2091C29.1957 54.3185 30.571 52.9986 32.4328 52.164C30.1596 49.5332 30.8673 46.421 32.6191 44.8112C34.6555 42.94 37.5782 42.9349 39.6431 44.7853C41.3095 46.2774 42.2398 49.4012 39.8682 52.1795L39.863 52.1756ZM57.3811 19.0741C60.6505 15.5685 61.0736 9.19409 56.8221 5.03246C52.5707 0.870831 45.8896 1.09988 41.915 5.51384C38.0026 9.86052 38.8526 16.0201 41.8309 19.0547C42.637 17.1537 44.0006 15.8028 45.8792 14.9707C43.6008 12.2817 44.368 9.27691 45.9801 7.6943C47.7513 5.94605 50.6378 5.71572 52.5785 7.15728C53.6407 7.94276 54.3523 8.96893 54.6266 10.263C55.0018 12.0371 54.4972 13.5912 53.2952 14.9681C55.2463 15.8196 56.5763 17.1913 57.3862 19.078L57.3811 19.0741ZM11.7838 29.4471C9.54552 26.8306 10.2015 23.8154 11.8808 22.1642C13.7038 20.372 16.6213 20.1934 18.5814 21.71C19.6332 22.524 20.319 23.5747 20.5531 24.8688C20.7114 25.6588 20.6792 26.4751 20.4592 27.2501C20.2391 28.0252 19.8376 28.7366 19.2878 29.3255C20.1145 29.9453 20.9788 30.4513 21.6554 31.1371C22.3321 31.823 22.8199 32.69 23.3801 33.4741C26.6534 29.8948 26.8733 23.554 22.7461 19.4985C18.6448 15.4805 12.0568 15.5737 8.12623 19.6551C4.04301 23.8866 4.57087 30.1731 7.73032 33.5259C8.1039 32.6124 8.65434 31.7818 9.34998 31.0818C10.0456 30.3818 10.8727 29.8263 11.7838 29.4471ZM21.5338 35.1797C21.1392 33.2011 19.7885 31.678 17.8439 31.2135C16.2713 30.8199 14.6249 30.8293 13.0569 31.2406C11.2249 31.7363 10.0656 32.9915 9.53904 34.8083C9.52461 34.9134 9.53515 35.0204 9.56976 35.1207C9.60438 35.2209 9.66211 35.3117 9.73829 35.3854C13.0219 37.8648 18.3524 37.7639 21.5338 35.1797ZM36.1537 59.9385C38.2018 59.9327 40.2019 59.3188 41.9008 58.1748C42.1776 57.9897 42.2061 57.8202 42.1337 57.5278C41.6226 55.5194 39.6664 53.8773 37.5886 53.775C36.6441 53.7297 35.6931 53.7297 34.7422 53.775C32.7084 53.8695 30.8401 55.3848 30.232 57.3298C30.0936 57.771 30.1557 58.0117 30.5555 58.2641C32.2283 59.337 34.1692 59.9173 36.1563 59.9385H36.1537ZM49.6299 16.5882C49.1124 16.5882 48.5807 16.5598 48.0606 16.5882C46.0552 16.7176 44.1067 18.3559 43.6461 20.3215C43.6325 20.4367 43.6459 20.5535 43.6852 20.6627C43.7245 20.7718 43.7886 20.8704 43.8725 20.9504C47.0889 23.303 52.1062 23.2914 55.3563 20.966C55.6267 20.7719 55.6551 20.5959 55.5736 20.3189C55.2612 19.2254 54.6007 18.2637 53.6924 17.5795C52.4892 16.6426 51.0932 16.464 49.6325 16.5818L49.6299 16.5882ZM29.9823 8.25591C30.7983 8.25319 31.5801 7.92814 32.1576 7.35154C32.7351 6.77495 33.0614 5.99351 33.0654 5.1774C33.0615 4.36118 32.738 3.57898 32.1644 2.99845C31.5907 2.41791 30.8125 2.08523 29.9966 2.0717C29.5877 2.07255 29.1831 2.15397 28.8057 2.31132C28.4283 2.46867 28.0857 2.69886 27.7973 2.98872C27.5089 3.27859 27.2805 3.62245 27.1251 4.00066C26.9697 4.37887 26.8903 4.78401 26.8915 5.19292C26.899 6.00774 27.2285 6.78649 27.8081 7.35915C28.3877 7.93181 29.1702 8.25187 29.9849 8.24944L29.9823 8.25591ZM52.6846 11.3616C52.6819 10.5453 52.358 9.76286 51.7829 9.18358C51.2079 8.6043 50.4279 8.27477 49.6118 8.26627C48.7958 8.27321 48.0147 8.5984 47.4347 9.17264C46.8548 9.74689 46.5218 10.5248 46.5067 11.3409C46.5055 11.75 46.5853 12.1552 46.7416 12.5332C46.8979 12.9112 47.1275 13.2545 47.4171 13.5433C47.7068 13.8321 48.0508 14.0606 48.4293 14.2156C48.8078 14.3707 49.2132 14.4492 49.6222 14.4466C50.0263 14.4459 50.4264 14.3654 50.7994 14.2098C51.1724 14.0541 51.511 13.8263 51.7957 13.5394C52.0805 13.2526 52.3058 12.9123 52.4588 12.5381C52.6118 12.1639 52.6894 11.7633 52.6872 11.359L52.6846 11.3616ZM5.16472 42.3797C4.34887 42.3892 3.56924 42.7183 2.99327 43.2963C2.4173 43.8743 2.09091 44.6552 2.08419 45.4712C2.09325 46.2871 2.4212 47.0672 2.99785 47.6444C3.57451 48.2217 4.35411 48.5503 5.16991 48.5601C5.57904 48.5606 5.98421 48.4799 6.36194 48.3227C6.73968 48.1655 7.08246 47.9349 7.37043 47.6442C7.65841 47.3535 7.88585 47.0086 8.03957 46.6293C8.19329 46.2501 8.27023 45.8441 8.26595 45.435C8.25911 44.6189 7.92914 43.8388 7.34832 43.2657C6.76751 42.6925 5.98323 42.373 5.16732 42.3771L5.16472 42.3797ZM11.3944 54.7042C11.3877 55.1134 11.4617 55.5199 11.6121 55.9005C11.7625 56.2811 11.9864 56.6284 12.2711 56.9224C12.5557 57.2165 12.8954 57.4516 13.2709 57.6143C13.6464 57.777 14.0502 57.8641 14.4594 57.8707C15.2743 57.8644 16.0546 57.5405 16.6345 56.9678C17.2143 56.3951 17.548 55.6187 17.5645 54.8038C17.5731 53.988 17.2586 53.2019 16.6896 52.6174C16.1207 52.0328 15.3435 51.6972 14.5279 51.6839C13.7128 51.6693 12.9252 51.979 12.3382 52.5448C11.7511 53.1106 11.4126 53.8863 11.3969 54.7016L11.3944 54.7042ZM8.26595 5.14246C8.25677 4.32619 7.92665 3.54636 7.347 2.97168C6.76734 2.397 5.98478 2.07369 5.16861 2.0717C4.35262 2.0861 3.57427 2.41768 2.99852 2.9962C2.42276 3.57472 2.09482 4.35472 2.08419 5.17092C2.08705 5.5802 2.17079 5.98488 2.33055 6.36168C2.49031 6.73849 2.72296 7.08 3.01513 7.36657C3.3073 7.65314 3.65322 7.87912 4.033 8.03153C4.41278 8.18393 4.81894 8.25975 5.22812 8.25462C5.63286 8.25041 6.03277 8.16625 6.4049 8.00699C6.77703 7.84774 7.11404 7.61651 7.39656 7.3266C7.67908 7.0367 7.90155 6.69382 8.05119 6.31766C8.20083 5.94151 8.2747 5.53948 8.26854 5.13469L8.26595 5.14246ZM56.8351 39.2494C57.6515 39.2495 58.4351 38.928 59.0162 38.3545C59.5974 37.781 59.9293 37.0016 59.9402 36.1852C59.9364 35.369 59.6144 34.5866 59.0427 34.0042C58.4711 33.4218 57.6948 33.0854 56.8791 33.0665C56.4701 33.0647 56.0648 33.1436 55.6864 33.2988C55.308 33.4541 54.9641 33.6825 54.6742 33.9711C54.3844 34.2597 54.1544 34.6027 53.9974 34.9804C53.8405 35.3582 53.7597 35.7632 53.7597 36.1722C53.7597 36.9881 54.0837 37.7706 54.6604 38.3477C55.2371 38.9247 56.0193 39.2491 56.8351 39.2494ZM33.0719 48.5355C33.0688 48.9453 33.1469 49.3516 33.3016 49.7311C33.4562 50.1106 33.6845 50.4557 33.9731 50.7466C34.2618 51.0375 34.6051 51.2683 34.9834 51.4258C35.3616 51.5834 35.7673 51.6645 36.177 51.6645C36.992 51.6533 37.7699 51.322 38.3428 50.7422C38.9158 50.1623 39.2378 49.3805 39.2394 48.5652C39.2388 47.7488 38.9151 46.9658 38.3391 46.3873C37.7631 45.8088 36.9816 45.4818 36.1654 45.4777C35.3501 45.4756 34.567 45.7957 33.9866 46.3685C33.4062 46.9412 33.0756 47.7201 33.0667 48.5355H33.0719ZM18.5814 25.8316C18.5827 25.4274 18.5044 25.027 18.3508 24.6532C18.1973 24.2793 17.9715 23.9395 17.6864 23.6531C17.4014 23.3666 17.0626 23.1392 16.6896 22.9839C16.3166 22.8286 15.9166 22.7484 15.5125 22.7479C13.7969 22.7414 12.3699 24.1713 12.3958 25.8613C12.4149 26.6779 12.7511 27.4549 13.3331 28.0278C13.9151 28.6008 14.6972 28.9246 15.5138 28.9308C16.329 28.9199 17.1073 28.5888 17.6805 28.0089C18.2537 27.4291 18.5759 26.647 18.5775 25.8316H18.5814Z" fill="#FC7500"/>
</g>
<defs>
<clipPath id="clip0_2_107">
<rect width="62" height="62" fill="white"/>
</clipPath>
</defs>
</svg>
